#!OML:ASF F:\VICON\USERDATA\INSTALL\rory3\rory3.ASF
:FULLY-SPECIFIED
:DEGREES
509
root -2.05657 16.1395 -35.1954 -229.453 26.6737 139.008
lowerback -5.99899 -38.6958 -8.80588
upperback -4.4365 -52.3478 -13.7931
thorax -11.2877 -26.7132 -7.33912
lowerneck -16.1553 -2.74426 -4.78917
upperneck 43.0646 -4.15816 4.13533
head 19.609 -1.7439 2.09254
rclavicle 1.17283e-014 2.3059e-014
rhumerus -0.354892 -39.758 7.73509
rradius 46.7583
rwrist -74.1621
rhand -20.5929 12.9612
rfingers 7.12502
rthumb 5.7674 -16.9403
lclavicle 1.17283e-014 2.3059e-014
lhumerus 11.0929 9.17392 -7.77322
lradius 37.269
lwrist -21.4338
lhand -7.04438 15.1402
lfingers 7.12502
lthumb 18.8281 44.249
rfemur 106.756 -49.1545 -170.351
rtibia 63.4097
rfoot -34.6076 -29.9625
rtoes 21.5128
lfemur -83.0021 -21.6657 76.5092
ltibia 27.2959
lfoot -113.448 171.154
ltoes -9.47176
510
root -1.99959 15.9075 -35.4259 -218.799 26.8634 137.856
lowerback -21.6915 -38.3472 1.31084
upperback -8.37889 -51.0753 -9.56602
thorax -11.6414 -27.2474 -11.2647
lowerneck -15.8176 -2.60749 -5.09889
upperneck 42.9909 -4.02614 4.59007
head 19.4808 -1.68302 2.40256
rclavicle -7.34012e-014 -5.1684e-014
rhumerus -1.75968 -39.1878 6.77227
rradius 46.3912
rwrist -74.1577
rhand -20.5588 12.8462
rfingers 7.12502
rthumb 5.80031 -17.0545
lclavicle -7.34012e-014 -5.1684e-014
lhumerus 8.75659 9.44565 -7.33891
lradius 36.7906
lwrist -22.371
lhand -6.60817 15.2924
lfingers 7.12502
lthumb 19.2476 44.3599
rfemur 123.322 -44.4883 -185.641
rtibia 66.4657
rfoot -33.7744 -29.7508
rtoes 16.2089
lfemur -80.625 -13.2031 76.4948
ltibia 24.2332
lfoot -114.221 173.642
ltoes -8.85633
511
root -1.96152 15.709 -35.6558 -208.434 27.675 136.144
lowerback -38.1725 -35.5264 11.843
upperback -11.2916 -49.0454 -5.82931
thorax -12.0934 -27.3667 -15.6402
lowerneck -16.7261 -2.43497 -5.0037
upperneck 43.1282 -3.82671 4.77551
head 19.8233 -1.55625 2.52581
rclavicle 1.9456e-013 8.5875e-014
rhumerus -3.29077 -38.7823 5.62687
rradius 45.7806
rwrist -74.5325
rhand -20.9462 13.4541
rfingers 7.12502
rthumb 5.42628 -16.4565
lclavicle 1.9456e-013 8.5875e-014
lhumerus 6.413 10.5177 -7.09583
lradius 36.2473
lwrist -22.9938
lhand -5.91857 15.8111
lfingers 7.12502
lthumb 19.9106 44.8112
rfemur 136.957 -36.5163 -197.521
rtibia 68.6949
rfoot -31.9419 -29.017
rtoes 9.70701
lfemur -77.8752 -4.66052 75.8022
ltibia 21.4576
lfoot -115.384 176.772
ltoes -8.69887
512
root -1.96903 15.5556 -35.687 -207.627 26.6557 137.911
lowerback -37.7007 -36.537 11.17
upperback -10.2492 -50.15 -6.00328
thorax -11.0863 -27.7544 -15.7616
lowerneck -18.305 -2.2147 -4.79352
upperneck 43.336 -3.50303 4.79775
head 20.4 -1.38222 2.58178
rclavicle 3.74709e-014 2.38542e-014
rhumerus -4.38716 -38.6688 4.25762
rradius 44.8674
rwrist -74.5627
rhand -21.4589 13.2171
rfingers 7.12502
rthumb 4.93127 -16.7055
lclavicle 3.74709e-014 2.38542e-014
lhumerus 3.96244 11.3633 -7.06864
lradius 35.5161
lwrist -23.0421
lhand -5.5397 16.6693
lfingers 7.12502
lthumb 20.2748 45.6311
rfemur 135.259 -32.3132 -195.647
rtibia 69.6966
rfoot -31.7557 -26.498
rtoes 9.17461
lfemur -79.0293 -6.77742 75.5579
ltibia 18.4658
lfoot -116.813 179.868
ltoes -3.5351
513
root -2.002 15.4522 -35.72 -207.548 26.1863 138.1
lowerback -37.8395 -36.4511 11.4535
upperback -10.1621 -50.1817 -6.19431
thorax -11.3321 -27.8455 -15.9053
lowerneck -18.1718 -2.1233 -4.86142
upperneck 43.2268 -3.32664 4.81694
head 20.27 -1.32125 2.63741
rclavicle 8.3092e-014 -1.05753e-013
rhumerus -5.47764 -37.7942 3.54647
rradius 43.7664
rwrist -74.4597
rhand -21.509 11.8272
rfingers 7.12502
rthumb 4.88291 -18.0965
lclavicle 8.3092e-014 -1.05753e-013
lhumerus 1.79363 11.3277 -6.63485
lradius 34.5244
lwrist -23.107
lhand -5.05405 17.3951
lfingers 7.12502
lthumb 20.7415 46.3066
rfemur 134.14 -30.0481 -195.855
rtibia 70.8325
rfoot -31.8705 -24.8393
rtoes 9.58977
lfemur -79.2984 -8.55625 72.994
ltibia 15.6399
lfoot -117.302 181.313
ltoes -2.24332
514
root -2.04579 15.3937 -35.7652 -207.546 26.2925 138.101
lowerback -38.1043 -35.9679 12.0037
upperback -9.92508 -49.8257 -6.06635
thorax -10.9894 -27.6589 -16.1247
lowerneck -18.4725 -2.27375 -5.17641
upperneck 42.7271 -3.45641 4.95011
head 20.0462 -1.39617 2.71203
rclavicle 6.38596e-014 3.81667e-014
rhumerus -6.42842 -38.2306 2.98746
rradius 42.3676
rwrist -73.5509
rhand -21.1785 9.97127
rfingers 7.12502
rthumb 5.20202 -19.9449
lclavicle 6.38596e-014 3.81667e-014
lhumerus 0.451215 12.8985 -5.44606
lradius 32.7174
lwrist -24.3391
lhand -4.43609 17.7452
lfingers 7.12502
lthumb 21.3351 46.5907
rfemur 133.55 -28.7294 -196.288
rtibia 71.7813
rfoot -31.8927 -23.3869
rtoes 10.1478
lfemur -77.6387 -10.3349 69.7967
ltibia 10.4443
lfoot -117.497 181.215
ltoes -5.25792
515
root -2.09318 15.3267 -35.7683 -207.362 26.4086 138.503
lowerback -38.4288 -35.4503 12.855
upperback -9.67793 -49.5401 -6.69329
thorax -11.6514 -27.7242 -16.6823
lowerneck -16.8578 -2.20888 -5.1626
upperneck 42.6503 -3.45855 5.057
head 19.5243 -1.38698 2.75416
rclavicle -1.0635e-013 -9.93923e-014
rhumerus -7.23983 -35.8647 1.66174
rradius 41.4123
rwrist -72.8673
rhand -22.7579 9.06924
rfingers 7.12502
rthumb 3.67685 -20.8788
lclavicle -1.0635e-013 -9.93923e-014
lhumerus -0.648405 12.2402 -4.89121
lradius 31.0713
lwrist -25.2659
lhand -3.08108 18.4136
lfingers 7.12502
lthumb 22.6361 47.1062
rfemur 133.171 -26.5189 -196.204
rtibia 72.5478
rfoot -32.2414 -20.9528
rtoes 11.5611
lfemur -75.5538 -11.8221 64.6911
ltibia 5.45465
lfoot -117.637 179.659
ltoes -4.00444
516
root -2.13628 15.2317 -35.7719 -207.088 26.3342 139.108
lowerback -38.034 -35.5705 13.0616
upperback -9.59158 -49.8195 -6.61467
thorax -11.8456 -27.8468 -16.3652
lowerneck -16.866 -2.08679 -5.09835
upperneck 42.7886 -3.12429 4.70507
head 19.5725 -1.29423 2.6429
rclavicle -2.5345e-014 3.97569e-014
rhumerus -6.80301 -36.9608 -0.228332
rradius 39.8163
rwrist -71.6769
rhand -22.2089 7.62879
rfingers 7.12502
rthumb 4.20703 -22.3094
lclavicle -2.5345e-014 3.97569e-014
lhumerus -2.16797 12.3756 -4.4361
lradius 29.5298
lwrist -26.2359
lhand -1.1257 19.9173
lfingers 7.12502
lthumb 24.5117 48.3686
rfemur 132.729 -25.0967 -195.773
rtibia 73.2806
rfoot -33.1314 -18.8222
rtoes 14.8253
lfemur -73.0752 -13.2809 59.5867
ltibia -9.44227e-016
lfoot -117.728 178.88
ltoes -4.26651
517
root -2.19244 15.1975 -35.7654 -206.942 26.5431 139.418
lowerback -37.9699 -35.0737 13.8419
upperback -9.50166 -49.5469 -6.83709
thorax -12.3789 -27.8259 -16.4773
lowerneck -15.7971 -2.10267 -4.48647
upperneck 42.4837 -3.064 3.93632
head 19.0219 -1.27562 2.14871
rclavicle -8.18993e-014 -4.05521e-014
rhumerus -7.29387 -37.5261 -1.25585
rradius 38.4867
rwrist -71.0008
rhand -22.3498 7.31261
rfingers 7.12502
rthumb 4.07104 -22.6282
lclavicle -8.18993e-014 -4.05521e-014
lhumerus -2.92269 12.6386 -3.59139
lradius 28.0471
lwrist -27.4272
lhand 1.20595 20.7878
lfingers 7.12502
lthumb 26.7449 48.9174
rfemur 132.689 -25.5291 -195.614
rtibia 73.8741
rfoot -34.2778 -18.9191
rtoes 15.6754
lfemur -73.1122 -15.0952 54.2395
ltibia -1.15096e-013
lfoot -120.109 175.384
ltoes -8.27432
518
root -2.23828 15.1426 -35.8002 -206.769 26.6409 139.792
lowerback -37.9313 -34.9192 14.736
upperback -9.66932 -49.7738 -6.21723
thorax -12.6634 -27.915 -15.8532
lowerneck -16.8762 -1.4753 -4.0773
upperneck 42.4331 -1.86452 3.24512
head 19.1837 -0.826185 1.98014
rclavicle -7.7526e-014 1.02573e-013
rhumerus -5.98578 -39.8406 -3.4484
rradius 37.0307
rwrist -70.0516
rhand -22.7481 7.12851
rfingers 7.12502
rthumb 3.68639 -22.8194
lclavicle -7.7526e-014 1.02573e-013
lhumerus -4.6544 14.1306 -2.96131
lradius 26.7861
lwrist -28.3141
lhand 3.42604 21.495
lfingers 7.12502
lthumb 28.8676 49.2814
rfemur 131.936 -29.0959 -195.184
rtibia 74.7605
rfoot -34.2222 -22.8808
rtoes 13.424
lfemur -72.8273 -16.8756 48.8885
ltibia -4.85035e-014
lfoot -121.77 174.838
ltoes -5.87993
519
root -2.27814 15.0604 -35.8255 -206.28 25.9001 140.921
lowerback -37.1046 -35.4294 14.275
upperback -9.4003 -50.2566 -6.11272
thorax -12.3622 -28.0149 -15.4121
lowerneck -16.8609 -1.69582 -4.7327
upperneck 43.0534 -2.10769 3.61157
head 19.6228 -0.979165 2.25613
rclavicle -1.31198e-014 3.49861e-014
rhumerus -5.73834 -41.7352 -4.6176
rradius 35.6423
rwrist -68.7863
rhand -23.1612 7.02868
rfingers 7.12502
rthumb 3.28744 -22.9257
lclavicle -1.31198e-014 3.49861e-014
lhumerus -5.32241 15.4066 -1.89234
lradius 25.5439
lwrist -29.4464
lhand 5.86222 22.124
lfingers 7.12502
lthumb 31.192 49.4887
rfemur 130.432 -29.9932 -193.966
rtibia 75.5349
rfoot -35.007 -23.9277
rtoes 14.5856
lfemur -73.0607 -19.1851 43.9936
ltibia 4.41302e-014
lfoot -123.312 174.296
ltoes -2.97015
520
root -2.3172 15.0153 -35.8345 -205.39 26.459 142.828
lowerback -36.6428 -34.9174 15.6266
upperback -8.76246 -50.2106 -6.36521
thorax -12.8231 -28.0487 -15.4049
lowerneck -16.0572 -1.91611 -4.64239
upperneck 43.2536 -2.41585 3.41202
head 19.5395 -1.10739 2.08439
rclavicle 1.12512e-013 7.15625e-015
rhumerus -6.44859 -43.1465 -5.06717
rradius 34.6224
rwrist -67.784
rhand -23.8213 7.18367
rfingers 7.12502
rthumb 2.64993 -22.7796
lclavicle 1.12512e-013 7.15625e-015
lhumerus -5.36594 18.1143 -0.85184
lradius 23.3888
lwrist -33.3148
lhand 7.5637 20.7825
lfingers 7.12502
lthumb 32.8121 47.8222
rfemur 129.922 -30.8374 -191.742
rtibia 76.1545
rfoot -35.0299 -25.1673
rtoes 12.4486
lfemur -71.9641 -21.0516 39.9791
ltibia 3.43897e-014
lfoot -123.606 174.955
ltoes 2.43409
521
root -2.34871 14.9502 -35.8543 -205.026 25.9458 143.691
lowerback -36.5213 -34.9782 16.2341
upperback -8.92562 -50.5534 -6.24169
thorax -13.5407 -28.2735 -14.9468
lowerneck -16.2855 -1.84813 -5.02799
upperneck 43.8353 -2.02253 3.16747
head 19.9745 -1.05511 2.13691
rclavicle -1.53859e-013 -1.43125e-014
rhumerus -5.86773 -43.7673 -6.41793
rradius 34.0269
rwrist -67.6489
rhand -24.8553 7.6611
rfingers 7.12502
rthumb 1.65134 -22.3123
lclavicle -1.53859e-013 -1.43125e-014
lhumerus -6.43722 16.5797 0.0828538
lradius 23.4057
lwrist -30.2009
lhand 10.1245 27.5625
lfingers 7.12502
lthumb 35.2444 54.0612
rfemur 128.782 -31.0456 -190.797
rtibia 76.816
rfoot -36.1214 -25.0141
rtoes 14.967
lfemur -70.9155 -23.2879 34.7148
ltibia -4.70126e-014
lfoot -124.583 179.9
ltoes 11.0463
522
root -2.38803 14.9231 -35.8664 -205.033 25.4017 143.746
lowerback -36.2603 -34.77 16.11
upperback -9.05626 -50.2206 -6.5574
thorax -13.9171 -28.1788 -15.0586
lowerneck -15.0589 -1.98559 -4.91785
upperneck 43.9737 -2.1604 2.82567
head 19.708 -1.12925 1.92249
rclavicle 3.34952e-014 3.26007e-014
rhumerus -7.51085 -42.5027 -5.74597
rradius 34.2984
rwrist -69.3767
rhand -27.1122 8.89856
rfingers 7.12502
rthumb -0.528479 -21.0805
lclavicle 3.34952e-014 3.26007e-014
lhumerus -6.46683 17.0043 1.39685
lradius 22.4665
lwrist -30.6475
lhand 11.0956 28.4444
lfingers 7.12502
lthumb 36.1648 54.7203
rfemur 127.899 -33.1976 -190.623
rtibia 77.344
rfoot -35.3429 -28.4404
rtoes 10.7149
lfemur -72.7716 -25.8249 29.2238
ltibia 5.99591
lfoot -124.581 174.17
ltoes 9.22585
